<?xml version="1.0" encoding="utf-8"?>
<!-- Generator: Adobe Illustrator 18.0.0, SVG Export Plug-In . SVG Version: 6.00 Build 0)  -->
<!DOCTYPE svg PUBLIC "-//W3C//DTD SVG 1.1//EN" "http://www.w3.org/Graphics/SVG/1.1/DTD/svg11.dtd">
<svg version="1.1" id="Слой_2" xmlns="http://www.w3.org/2000/svg" xmlns:xlink="http://www.w3.org/1999/xlink" x="0px" y="0px"
	 viewBox="366 0 859 1200" enable-background="new 366 0 859 1200" xml:space="preserve">
<path fill="#32CD32"    d="M1209.5,1177.8c-6.6-2.3-1.4-2-4.6-3.5
	c-3.2-1.4-12.7-4-23.3-5.2c-10.6-1.2-24.2-2.9-28.8-4.6s-11.2-1.4-24.7-3.2c-13.5-1.7-23.6-9.2-23.6-9.2s15-0.6,17.8,0.9
	c2.9,1.4,9.2,3.5,15.2,2.9s3.5-7.2,3.5-7.2s33.4-0.3,41.4,0c8.1,0.3,4.3-4,4.6-5.5c0.3-1.4,3.2-2.6,1.4-4.9
	c-1.7-2.3-12.9-0.6-13.5-2.3c-0.6-1.7-5.8,0.3-12.1,0c-6.3-0.3-24.2-2.9-31.1-4.3c-6.9-1.4-29.3-5.8-38.5-11.5
	c-9.2-5.8-28.2-28.2-39.7-41.4c-0.2-0.2-0.4-0.5-0.7-0.8c1.7-5.5,3.3-11.1,3.8-16.8c0.3-4.2,0-9.1-2.4-12.7
	c-2.5-3.9-6.2-6.9-9.1-10.6c-1.1-1.4-2.1-2.8-3.2-4.1c0.4-2.6,0.6-5.2,0.5-8.1c-0.1-7.1-1.7-14.3-4.3-21.1c2.5,0.1,5.5,0.2,7.2-1
	c-0.9-0.3-3.2,0.1-4.5,0.1c-1.1,0-2.2-0.1-3.2-0.4c-1.4-3.6-3.1-7-5-10.3c-0.6-1-1.1-2-1.7-3c0-0.3,0.1-0.5,0.1-0.8
	c0.4-4.8-0.4-8.6-3-12.7c-2.6-4.1-6.1-6-10.5-7.6c-2.1-0.8-4.4-1.5-6.6-2.1c-0.2-0.1-0.5-0.1-0.7-0.2c0.3-1.9,0.4-3.8,0.1-5.8
	c-0.5-3.1-0.9-6.3-1.7-9.2c-1.4-5.2-5.8-9.6-10.4-12.2c-2.5-1.4-5.3-2.3-7.7-3.7c-2-1.2-2.8-3.4-3.9-5.4c-1-1.9-2.1-4.3-3.5-6
	c-1.2-1.6-3-2.2-4.6-3.1c-0.9-1.6-1.7-3.2-2.5-4.7c1.3,0.1,2.5,0.3,3.7,0.5c3.8,0.7,7.6,2.9,11.5,4c4,1.2,7.7,3.4,10.9,6.1
	c1.8,1.5,3.7,3.1,5.3,4.7c1.4,1.4,2.1,3.6,3.6,4.9c-0.5-3.1-3.1-6.4-5.1-8.8c-2.7-3.2-5.8-5.9-9.3-8c-8.4-5.3-17.1-10.2-26.2-13.7
	c-0.4-0.7-0.7-1.3-1-1.8c-2.6-4.4-7-6.9-11.4-8.2c-2.9-3.5-6.8-6.3-10.8-8c-2.8-1.2-5.3-2-8.3-2.2c-0.4-0.7-0.8-1.5-1.2-2.3
	c-2.9-6.3-12.1-17.3-15-25.9s-8.6-23-15-41.4c-6.3-18.4-10.9-18.4-16.7-23s-7.5-4.6-6.9-7.5s-3.5-5.8-4-9.2
	c-0.6-3.5-5.8-5.8-6.9-9.8c-1.2-4-13.8-19-17.8-25.3S842.5,719.2,835,714s-3.5-6.9-6.3-11.5c-2.9-4.6-6.3-10.9-9.2-19
	s-6.9-5.8-12.7-8.6s1.2-6.3,0-11.5s-4-1.2-6.9-8.6c-2.9-7.5-2.9-10.4-5.8-17.3c-2.9-6.9-8-1.2-9.1-8.1c-1.2-6.9,1.2-9.8-4-32.2
	s-15-38-31.1-53.5c-16.1-15.5-26.5-20.1-50.1-41.4c-23.6-21.3-37.4-38.5-50.1-55.8c-12.7-17.3-49.5-55.2-58.1-70.8
	c0,0,0-1.7-2.9-9.5c-2.9-7.8-4.3-11.5-6.9-21.3c-2.6-9.8-3.7-42-9.8-63.3c-6-21.3-12.7-36-27.6-56.4c-15-20.4-53.8-78.2-58.4-86.3
	s0.6-10.6,0.6-15c0-4.3,4.3-16.4-9.8-28.8C462.7,82.7,459.3,74,456.1,70c-3.2-4-9.5-13.2-15.2-24.5c-5.7-11.3-10.1-10.4-10.1-10.4
	s-2.3-6.9-6.3-11.5s-7.8-1.7-7.8-1.7s-1.4-4.6-6.6-5.8c-5.2-1.2-4.9,2.3-4.9,2.3s-2.3-3.7-6.3-4s-4.9,3.5-4.9,3.5s-3.2-3.7-7.8-3.5
	c-4.6,0.3-4.3,5.2-4.3,5.2s-6.3-5.5-8.6,3.2c-2.3,8.7,9.8,22.2,10.9,25c1.2,2.9,1.2,11.5,4.9,15.8c3.7,4.3,13.5,15.8,17.3,22.2
	c3.7,6.3,10.9,24.7,20.4,41.1s11.9,12.9,23.1,27.3c11.2,14.4,21,38.8,27.9,61.3c6.9,22.4,16.4,53.8,23,71.6
	c6.6,17.8,9.2,44.3,8.6,60.1c-0.6,15.8,0.3,23,1.7,28.5s7.5,9.5,8.6,13.5c1.2,4,3.2,12.4,7.8,30.5c4.6,18.1,28.2,70.8,42.9,99.5
	c14.7,28.8,45.7,78,45.7,78s-4.9,5.2-12.4,19.8c-7.5,14.7-9.2,25.6-13.2,42.3s-29.9,73.9-35.1,88s-11.5,36.8-15.8,54.4
	c-4.3,17.5-21.9,58.7-23.9,68.2s-7.2,13.5-14.4,26.5c-7.2,12.9-18.7,32.2-28.8,54.9s-9.5,52.4-10.4,65.9
	c-0.9,13.5-12.1,64.2-15.2,74.2c-3.2,10.1-19.3,43.4-20.1,56.4c-0.9,12.9,7.8,17,22.7,18.1c15,1.2,35.7-6.6,50.4-5.8
	c14.7,0.9,24.1,3.2,37.9,4.6c13.8,1.4,23.3-2,28.2-1.2c4.9,0.8,19.8-2.3,22.7-6s-0.9-6.9-0.9-6.9s-7.8,0-12.4-0.6s-12.9-4-16.7-4.6
	c-3.7-0.6-22.7-7.5-26.5-9.5c-3.7-2-17.3-9.5-22.2-11.8s-8.3-5.5-9.2-10.6c-0.9-5.2-2.9-18.4,2.6-43.4s31.4-69,42.6-98.7
	c11.2-29.6,12.9-39.7,17.8-49.2c4.9-9.5,7.5-8.6,19.8-23.3c12.4-14.7,14.7-32.2,21.3-41.4c6.6-9.2,30.2-32.5,43.2-47.5
	c12.9-15,31.1-46.3,31.1-46.3s2.3,0.6,3.5,2.9c1.2,2.3-2,8.3-0.9,11.8c1.2,3.5,9.2,5.2,11.2,8.1c2,2.9,0.3,8.9,2,13.2
	s9.2,8.1,11.5,10.9s1.2,8.9,2.6,12.1c1.4,3.2,7.2,2.9,10.1,4.9s0.6,6.3,3.5,10.6s7.2,7.8,8.9,12.4c1.7,4.6,1.7,8.9,9.2,32.5
	s32.8,36,46.6,39.1c13.8,3.2,35.4-1.2,41.1-2c5.8-0.9,7.5,1.4,7.5,1.4s-5.5,2.6-9.8,5.5c-4.3,2.9-13.8,10.1-14.4,16.7s5.5,6,7.5,9.2
	s-0.6,7.2,0.6,9.5c1.2,2.3,5.5,0.9,6.6,3.7c1.2,2.9-3.2,4.3-2.3,5.8c0.9,1.4,4,3.5,4.9,6c0.9,2.6-0.6,2.9-2,5.8
	c-1.4,2.9-2.9,6.9-1.2,9.5c1.7,2.6,9.5,3.2,14.4,4c0.5,0.1,1,0.2,1.6,0.3c0,1.3,0,2.6,0.4,4c0.7,2.5,1.9,4.6,2.9,7
	c1.5,3.4,3.6,6.5,6.6,8.8s6.2,3.8,10.3,2.9c1.5-0.3,3.8-1.5,5.7-3l0,0c-0.2,0.3-0.4,0.7-0.6,1c-1.6,2.8-2.5,5.2-4.9,7.5
	c-2.8,2.7-7,6-10.9,6.8c-1.4,0.3-4.7,0.9-6,0.4c-1.6-0.7-3.6-4.4-4-6c-1.2-5.4,0.6-12.2,1.5-17.2c-2.2,4.7-3.5,9.5-3.1,14.9
	c0.2,3.1,1.5,9.2,4,11.3c2.4,2.1,7.3,1.3,10.1,0.3c4.3-1.6,7.5-4.6,10.4-8c-0.6,1.3-2.1,2.7-3.2,3.7c-1.5,1.3-2.6,2.7-3.7,4.3
	c-1.8,2.6-3.3,5.4-6.1,7.1c-4.8,2.9-10.1,4.5-15.7,5c-0.4-0.9-0.7-1.8-1.2-2.6c-0.7-1.1-1.8-2-2.4-3.1c-0.7,1.1,1,4,2.4,5.9
	c-1.7,0.1-3.4,0.2-5.1,0.1c1.4,1.2,3.8,1.4,6.2,1.4l0,0c1.8,2.2,3.8,5,6.3,6.5c3.9,2.2,9.3,3.3,13.8,3.4c-0.4,0.8-0.7,1.5-1.1,2.3
	c-1.9,3.6-4.7,5.9-7.7,8.3c4.2-2.7,7.7-6.1,10.9-10c0.2-0.2,0.3-0.4,0.5-0.6c2.3-0.1,4.5-0.3,6.7-1c0.6,3.7,1.3,7.5,2.3,11.3
	c1.1,4.7,2.1,9.6,3.9,14.2c0.3,0.8,0.7,1.6,1,2.3c-0.4,1.3-0.7,2.5-0.8,3.7c-0.4,4.9,0.9,9.6,0.9,14.4c0,4.9-0.6,9.7-0.6,14.7
	c0,5.1-0.5,9.7-1.9,14.4c-3,10.1-2.2,23.6,9.4,27.7c1.6,0.6,4,1,5.8,0.8c0.8-0.1,1.3-1,2.2-0.5c0.8,0.4,0.8,1.8,0.6,2.5
	c-0.9,4.3-4.8,5.6-8.4,6.7c-4.5,1.4-9.1,1.1-13.2-1.5c-3.6-2.3-7.5-6.8-8.1-11.2c-1.6,2.3,2.3,9,4.1,10.6c3,2.7,7.1,5.2,10.9,6
	c3.8,0.9,8,0.1,11.2-2.1c2.9-1.9,5-5.1,7.4-7.4c0.4,6.3,7.3,7.7,12.4,8.1c6.6,0.5,14.2,2,20.5,0.3c2.7-0.7,2.7,0.7,4.8,1.9
	c2.1,1.3,5.2,2.3,7.6,3.1c6.4,2.1,13.6,2.1,20.4,2.1c6.3,0,12.9,0.5,19.2,0c0.1-0.2,0.1-0.3,0-0.5l2,2c-2.6,1.9-4.4,4.5-7.2,6
	c-1.1,0.6-3.5,1.8-4.9,1.7c3.2,0.8,7.2-1.1,10.2-2c4-1.3,7.5-3.6,10.8-6.2c1.5-1.2,2-1.8,4-1.8c1.8,0,3.4-0.2,5.2-0.3
	c3.1-0.2,8.6-0.2,9.5-4.3c4.3,1.7,9.8,3.9,12.6,7.7c1.6,2.1,2.4,2.8,5.2,2.6c2.4-0.2,4.6-1.1,6.8-1.7c-2,0.3-4,0.8-6,0.8
	c-2.5,0.1-2.5-1.3-3.7-3.1c-0.9-1.3-2-2.7-3.1-3.8c-1.2-1.3-4.2-1.8-4.9-3c2.9,0,6-0.7,8.9-0.9c3.8-0.3,7.2,0,10.9,1.2
	c2,0.7,3.8,1.8,5.8,2.3c2.4,0.6,5.2,0.4,7.8,0.6c3.1,0.2,9.6,2.2,12.2-0.4c-4.2,0.1-10.8-2-12.5-6.3c7.8-0.5,19.4,1.5,23.8-7v-0.1
	c6.3,5.6,18.9,16.3,23.6,20.5c4.9,4.3,24.2,4.3,30.2,3.5c6-0.9,21,0.3,26.8,1.2c5.8,0.9,15.8,4.6,23.3,4.9s2.3-6.9,2.3-6.9
	s3.2,0.3,8.1,0.3s16.4,2.3,20.1,2c3.7-0.3,3.5-4,3.5-4s5.2,1.4,8.6-1.4C1220.2,1181.5,1216.2,1180.1,1209.5,1177.8z M1041.9,1062.2
	c-1-2.9-1.4-5.7-2.9-8.5c-1.2-2.3-2.6-4.6-4.5-6.5c-1.5-1.5-4-3.4-4.6-5.4c1.8,2.7,5.8,4.7,8.6,6.3c2,1.1,3.3,1.5,4.9,3.4
	c1.5,1.7,2.6,3.2,3.7,5.2c2.2,3.8,2.9,7.3,2.5,11.7c-0.1,1.6-0.4,3.2-0.7,4.9c-2.2-2.7-4.4-5.7-6.5-8.7
	C1042.4,1063.8,1042.2,1063,1041.9,1062.2z M1046.6,1047.2c3.9,3.1,6.1,7.5,7,12.3c0.9,4.7,0,10.1-0.9,14.7
	c-0.2,0.9-0.4,1.8-0.6,2.8c-0.5-0.6-1.1-1.3-1.6-1.9c1.5-5.2,2-10.5,0.6-16.1c-1-4-2.6-7.5-5.8-10.4c-1.5-1.4-3.1-2.3-5-3.1
	c-1-0.4-1.8-0.7-2.7-1.4c-0.4-0.3-0.7-0.6-1.1-0.9c1.5,0.5,3.3,0.7,4.6,1.1C1043.2,1044.9,1045.1,1046,1046.6,1047.2z
	 M1041.5,1033.1L1041.5,1033.1c-1.8-2-3.7-3.8-6.3-5.3c-1.9-1.1-3.9-1.8-5.6-3.3c-1.7-1.6-2.9-3.7-4.2-5.5c-2.8-4-6-8.2-7.4-13
	c-0.7-2.3-1.7-4.6-2.4-7c-0.6-1.9-2.4-6.1-1.1-7.9c0.6,2.3,3.5,5.1,5.2,6.7c2.3,2,5.2,3.5,8,4.6c2.3,0.9,4.7,1.7,7.2,2
	c1.3,2.4,2.4,4.8,3.4,7.6c1.7,4.4,3.1,9.2,3.5,13.8C1042,1028.4,1041.6,1030.6,1041.5,1033.1z M1032,1000.1c0.6,0.8,1.1,1.5,1.7,2.3
	c-5.1-1.1-8.3-3.4-12.2-6.7c-3.6-2.9-6.7-7.4-8.7-11.6c-1.3-2.8-3.5-6.8-3-10c1.1,0.3,2.4,2.7,3.4,3.7c1.3,1.3,2.8,2.4,4.1,3.7
	c2.5,2.5,5.1,4.8,7.3,7.3c1.8,2,3.2,4.4,4.6,6.8c-0.4,0.9-0.9,1.8-1.3,2.8c0.6-0.7,1.2-1.5,1.6-2.3
	C1030.2,997.5,1031,998.8,1032,1000.1z M1020.6,972.4c3.1,0.9,5.5,3.7,7.2,6.5c1.5,2.5,2.6,5.9,3.1,8.6c0.2,0.9,0.2,1.7,0.1,2.4
	c-2.1-3.5-4.3-6.9-7.6-9.3c-2.4-1.8-4.9-3.6-7.3-5.5c-1.8-1.4-4.8-3.4-5.7-5.6C1013.3,971.3,1017.4,971.5,1020.6,972.4z
	 M1008.5,956.8c1,2.5,1.7,6,1.4,8.6c0,0.3-0.1,0.6-0.2,1c-1.4-0.6-2.3-1.6-3-3.3c-2.5-5.9-4.2-13.3-8.7-18.3
	C1002.1,948.4,1006.5,951.8,1008.5,956.8z M949.5,893.8c0.7,0.4,1.5,0.7,2.2,1.1c-3.6-0.4-6.2-0.2-6.2-0.2s-1.6-1.6-3.5-4.2
	C944.8,891.4,947.8,892.9,949.5,893.8z M861.1,1016.3c-2,0.4-4-0.7-5.7-1.6c-1.7-0.9-2.8-2.4-4.3-3.6c-1.2-1-2.9-2.1-3.7-3.4
	c-1.2-1.9-2.5-5-2.9-7.2c-0.1-0.4-0.1-1.3-0.2-2.3c5.6,1.2,13.2,3.3,14.6,5.6c1.7,2.9,0.9,6.6,3.2,9.8c0.4,0.5,0.8,0.9,1.2,1.3
	C862.8,1015.5,862.1,1016.1,861.1,1016.3z M867.9,1039.4c1.4-4.8,3.6-9.4,8.2-11.8c-1.1,1.9-1.3,4.1-1.4,6.3
	c-0.2,3.3-0.6,6.6-1.3,9.8c-1.1,5-1.7,9.1-6.2,11.3c-0.2-2.3-0.5-4.5-0.5-6.9C866.6,1045.2,867,1042.1,867.9,1039.4z M846.7,1054.3
	c-3-0.7-7.4-1.9-9.7-4.4c1.3-0.1,2.5-0.2,3.4-0.4c4.1-0.6,7.8-2.3,11.6-3.9c4.7-1.9,7.8-5.7,10-10c-0.3,1.2-0.6,2.3-0.8,3.2
	c-1.1,4.2-0.4,8.8-2,12.9c-0.7,1.7-1.3,3.5-2,5.2C853.7,1056.7,850.2,1055.1,846.7,1054.3z M860.5,1056.8c0.9-1.7,1.7-3.4,2.5-5.2
	c0.8-1.9,0.3-4.7,1.4-6.4c-0.1,3.6,0.1,7.1,0.5,10.6C863.4,1056.3,862,1056.7,860.5,1056.8z M870.4,1077.9c-2.5-6.5-3-12.9-3.2-19.8
	c1-0.4,1.9-0.9,2.8-1.5c4.6-3.2,6.9-9.6,9.2-14.3c-0.6,2.6-2.4,5.4-3.5,8c-1.2,3.1-2.4,6.4-3.1,9.6c-1.1,5.1-1,10.6-0.6,15.8
	c0.2,2.5,0.3,5,0.4,7.5C871.8,1081.4,871.1,1079.6,870.4,1077.9z M885.3,1064.7c-2.5,4.4-6,8-8.4,12.3c-0.8,1.5-1.7,3.1-2.6,4.8
	c-0.2-2-0.6-3.9-0.4-5.9c0.3-3.1,1.4-6.3,2.6-9.2c1-2.4,1.4-4.7,2.7-6.9c1.6-2.7,3.2-5.7,5.2-8.1c2-2.5,4.8-4.2,6.7-6.7
	c-1.1,3.2-1.1,7-1.8,10.5C888.5,1059,887.1,1061.6,885.3,1064.7z"/>
</svg>
